# xmcd
#
# Track frame offsets:
#	150
#	13217
#	26305
#	41460
#	62375
#	77555
#	94012
#	109582
#	120335
#	134435
#
# Disc length: 1978 seconds
#
# Revision: 0
# Processed by: cddbd v1.4PL0 Copyright (c) Steve Scherf et al.
# Submitted via: dBpowerAMP V4.0
#
DISCID=6d07b80a
DTITLE=Lloyd Jones  - Small Potatoes
DYEAR=1900
DGENRE=
TTITLE0=Small Potatoes
TTITLE1=Sweet Talk
TTITLE2=No Longer a Part of Your Dreams
TTITLE3=Toughen Up
TTITLE4=Playing with the Heart
TTITLE5=I've Got to Get You Back
TTITLE6=Jump Sister Bessie
TTITLE7=You'd Be Crazy Too
TTITLE8=Nothing You Can Say
TTITLE9=If I Didn't Love You
EXTD=
EXTT0=
EXTT1=
EXTT2=
EXTT3=
EXTT4=
EXTT5=
EXTT6=
EXTT7=
EXTT8=
EXTT9=
PLAYORDER=
